<?xml version="1.0" encoding="UTF-8"?>
<svg xmlns="http://www.w3.org/2000/svg" xmlns:xlink="http://www.w3.org/1999/xlink" width="0" height="0" style="position:absolute; left:-9999px; top:-9999px;">
  <defs>
    <!-- Quarter note -->
    <symbol id="quarter" viewBox="0 0 27.06 83.62">
      <path fill="currentColor" d="M0,15.16H0v67.91c0,.3.25.55.55.55h2.43c.3,0,.55-.25.55-.55V20.68c3.59,1.78,9.07,1.46,14.24-1.23,7.18-3.73,11-10.59,8.55-15.31C23.86-.58,16.05-1.38,8.87,2.35,2.88,5.46-.03,10.77,0,15.16Z"/>
    </symbol>

    <!-- Half note -->
    <symbol id="half" viewBox="0 0 28.42 83.76">
      <path fill="currentColor" d="M27.89,0h-2.56c-.29,0-.53.24-.53.53l-.03,61.18c-.33-.22-.64-.41-.91-.52-3.92-1.83-9.44-1.36-14.41,1.23-7.56,3.93-11.32,11.19-8.55,16.52,1.4,2.69,4.19,4.38,7.86,4.75.51.05,1.03.08,1.55.08,2.93,0,6.08-.81,9.02-2.34,5.85-3.04,8.67-8.21,8.52-13.01l.04-.03L28.42.53c0-.29-.24-.53-.53-.53ZM17.43,77.75c-2.76,1.43-5.68,2.08-8.24,1.82-1.3-.13-3.62-.64-4.6-2.54-1.64-3.16,1.46-8.16,6.78-10.93,2.36-1.23,4.88-1.87,7.11-1.87,1.36,0,2.61.24,3.65.73h.03c.08.05,1.83.91,2.46,3.46.18,3.16-2.82,7.06-7.19,9.33Z"/>
    </symbol>

    <!-- Eighth note (single) -->
    <symbol id="eighth" viewBox="0 0 60.41 77.37">
      <path fill="currentColor" d="M57.56,10.68c-3.72-7.95-10.42-13.14-18.87-8.76-2.07,1.07-4.04,2.4-5.82,3.92-1.22,1.03-2.88,1.6-4.44,1.78-.28.03-.55.04-.82.04-.78-.32-1.41-.74-1.79-1.64-.26-.62-.24-1.22-.33-1.86-.08-.54-.11-1.09-.14-1.64-.03-.45.01-.98-.14-1.41-.29-.81-1.95-1.29-2.72-1.05-.6.18-.6.98-.57,1.5,0,.02,0,.04,0,.06l-.18,55.89c-3.31-1.7-8.38-1.39-13.15,1.17-6.63,3.56-10.16,10.1-7.89,14.6s8,5.49,14.63,1.93c5.53-2.97,9.16-8.03,9.14-12.22V21.79s-.09-.76-.09-.76c4.31,3.28,9.6.65,13.44-2.09,3.05-2.18,8.34-9.16,12.32-8.39,3.74.72,5.53,6.32,6.3,9.59.98,4.19.68,8.66-.88,12.66-.36.91-.72,1.92-1.19,2.78-.57,1.02-1.31,2.03-1.16,3.3.07.6.3,1.04.85.68.42-.28.79-.67,1.12-1.05,1.54-1.81,2.63-4.07,3.6-6.24.03-.06.06-.13.08-.19.18-.36.34-.71.44-1.03,2.06-6.59,1.17-14.17-1.72-20.36Z"/>
    </symbol>

    <!-- Two eighths (beamed) -->
    <symbol id="two-eighths" viewBox="0 0 77.21 93.98">
      <path fill="currentColor" d="M73.28.58v.05L24.19,10.63c-.38.08-.66.42-.66.81v61.87c-3.59-1.78-9.07-1.46-14.24,1.23-7.18,3.73-11,10.59-8.55,15.31,2.46,4.72,10.26,5.53,17.44,1.79,5.99-3.11,9.92-8.42,9.89-12.81V24.12c0-.34.24-.64.58-.71l43.75-8.88c.45-.09.87.25.87.71v45.63c-3.59-1.78-9.07-1.46-14.24,1.23-7.18,3.73-11,10.59-8.55,15.31,2.46,4.72,10.26,5.53,17.44,1.79,5.99-3.11,9.63-8.4,9.25-12.81h.04V.82c0-.52-.47-.91-.98-.81l-2.96.57Z"/>
    </symbol>

    <!-- Four sixteenths (beamed) -->
    <symbol id="four-sixteenths" viewBox="0 0 177.44 83.62">
      <path fill="currentColor" d="M177.44,0H23.53v62.94c-3.59-1.78-9.07-1.46-14.24,1.23-7.18,3.73-11,10.59-8.55,15.31,2.46,4.72,10.26,5.53,17.44,1.79,5.99-3.11,9.92-8.42,9.89-12.81V21.86h45.2v40.96c-3.59-1.78-9.07-1.46-14.24,1.23-7.18,3.73-11,10.59-8.55,15.31,2.46,4.72,10.26,5.53,17.44,1.79,5.99-3.11,9.63-8.4,9.25-12.81h.04V21.86h46.54v41.09c-3.59-1.78-9.07-1.46-14.24,1.23-7.18,3.73-11,10.59-8.55,15.31,2.46,4.72,10.26,5.53,17.44,1.79,5.99-3.11,9.92-8.42,9.89-12.81V21.86h45.2v40.96c-3.59-1.78-9.07-1.46-14.24,1.23-7.18,3.73-11,10.59-8.55,15.31,2.46,4.72,10.26,5.53,17.44,1.79,5.99-3.11,9.63-8.4,9.25-12.81h.04V0ZM28.08,19.33v-7.76h45.2v7.76H28.08ZM77.21,19.33v-7.76h46.54v7.76h-46.54ZM173.5,19.33h-45.2v-7.76h45.2v7.76Z"/>
    </symbol>

    <!-- Triplet beamed -->
    <symbol id="triplet" viewBox="0 0 130.15 83.62">
      <path fill="currentColor" d="M77.21,0H23.53v62.94c-3.59-1.78-9.07-1.46-14.24,1.23-7.18,3.73-11,10.59-8.55,15.31,2.46,4.72,10.26,5.53,17.44,1.79,5.99-3.11,9.92-8.42,9.89-12.81V11.57h45.2v51.25c-3.59-1.78-9.07-1.46-14.24,1.23-7.18,3.73-11,10.59-8.55,15.31,2.46,4.72,10.26,5.53,17.44,1.79,5.99-3.11,9.63-8.4,9.25-12.81h.03V11.57h48.39v51.37c-3.59-1.78-9.07-1.46-14.24,1.23-7.18,3.73-11,10.59-8.55,15.31s10.26,5.53,17.44,1.79c5.99-3.11,9.92-8.42,9.89-12.81V0h-52.93Z"/>
    </symbol>

    <!-- Treble clef -->
    <symbol id="treble" viewBox="0 0 64.39 170.4">
      <path fill="currentColor" d="M56.32,88.33c-3.26-2.52-8.66-3.57-12.62-3.76-2.08-.1-2.33.32-3.36-1.18-.95-1.4-.98-4.74-1.33-6.42-.89-4.27-1.77-8.53-2.66-12.8,9.39-5.8,16.43-15.3,19.25-25.97,2.82-10.67,1.39-22.4-3.91-32.09C50,3.03,47.3-.19,43.79,0c-2.63.15-4.73,2.19-6.34,4.28-5.08,6.62-7.74,14.88-8.55,23.19-.8,8.31.16,16.69,1.77,24.88.15.78.31,1.61.05,2.36-.28.81-1,1.39-1.68,1.92-9.9,7.64-20.55,15.34-25.78,26.69-3.11,6.74-4.04,14.46-2.62,21.74,1.46,7.5,5.58,14.68,12.04,18.77,4.23,2.68,9.21,3.93,14.15,4.71,6.26,1,12.74,1.32,18.89-.21.71,3.74,1.31,7.51,1.77,11.29.37,2.98.74,6.02.87,9.04.04.97-.03,1.91-.03,2.87-.19,1.97-.96,3.92-2.03,5.58-.47.74-1.02,1.44-1.62,2.08-1.83,1.93-4.13,3.37-6.56,4.43-1.73.76-3.59,1.22-5.48,1.31-.95.05-1.9,0-2.84-.16-.08-.01-.16-.03-.24-.04,3.75-2.02,6.33-5.94,6.33-10.5,0-6.62-5.36-11.98-11.98-11.98s-11.98,5.36-11.98,11.98c0,2.01.54,3.87,1.41,5.53l-.07-.02c.17.33.37.61.56.92.07.12.14.24.21.35,6.28,9.92,20.05,9.37,20.05,9.37,1.68.08,3.46-.28,5.07-.69,3.6-.92,6.98-2.73,9.58-5.39,1.24-1.27,2.3-2.72,3.16-4.28.71-1.28,1.33-2.61,1.66-4.04.46-1.98.31-4.01.12-6.01-.44-4.65-1.31-9.25-2.22-13.84-.22-1.09-.43-2.17-.65-3.26-.39-1.94-.78-3.88-1.16-5.82-.02-.1-.04-.2-.06-.29,0,0,11.53-3.36,13.93-13.45,0,0,4.56-15.85-7.21-24.98ZM35.66,16.41c4.7-6.34,14.86-3.53,15.59,4.33,0,0,1.43,11.27-8.38,22.43-1.59,2.17-4.99,5.49-8.94,9.05l-1.18-5.6c-.08-.41-.14-1.46-.21-1.87-1.04-6.72-1.22-16.35-.59-20.08.84-4.95,3.71-8.26,3.71-8.26ZM16.63,119.59c-4.91-4.16-8.48-10.15-8.78-16.58-.35-7.38,3.51-14.33,8.14-20.09,4.7-5.85,10.32-10.97,16.6-15.1,1.08,4.66,2.15,9.32,3.23,13.98.23.98.45,2.05.02,2.96-.46,1-1.54,1.52-2.5,2.05-7.08,3.86-11.42,11.6-11.56,19.59-.05,3.02.4,6.14,2.01,8.69,1.61,2.55,4.55,4.41,7.55,4.09-1.29.14-3.35-5.43-3.64-6.38-.8-2.64-.96-5.49-.46-8.21,1.07-5.76,5.44-9.72,11.33-10.27,2.12,9.55,4.58,20.89,6.57,30.83,0,.05.02.1.03.15-9.65,3.07-20.81.84-28.53-5.71ZM48.82,123.5l-.83-4.35c-.02-.12-.02-.24-.04-.36l-5.19-24.61c3.3.18,12.53,1.79,14.93,14.15,0,0,2.06,9.3-8.87,15.17Z"/>
    </symbol>

    <!-- Bass clef (circles + path) -->
    <symbol id="bass" viewBox="0 0 42.42 41.3">
      <g fill="currentColor">
        <circle cx="38.61" cy="8.09" r="3.81"/>
        <circle cx="38.61" cy="24.53" r="3.81"/>
        <path d="M25.47,5.39c-2.45-2.73-5.43-4.39-8.63-5.11C16.15.12,15.08,0,14.15,0c-.02,0-.05,0-.07,0,0,0,0,0,0,0-.29,0-.57.03-.86.06,0,0,0,0-.01,0,0,0,0,0,0,0-.06,0-.13.01-.19.02-.86.09-1.71.25-2.55.47-.19.05-.38.11-.57.17-.49.15-.98.33-1.46.53C4.87,2.75,1.29,5.79.06,11.41c0,0-.59,3.22,2.01,5.77,1.6,1.63,4.08,2.22,6.31,1.28,2.92-1.23,4.29-4.59,3.06-7.51-.89-2.11-2.89-3.39-5.02-3.49.99-1,2.19-1.78,3.48-2.33,1.03-.44,2.12-.74,3.23-.91.12-.02.24-.02.36-.03,6.2,0,11,7.19,10.33,13.03-.14,1.25-.37,2.48-.68,3.7-1.28,5.1-3.64,10.09-7.4,13.82-1.28,1.27-2.79,2.13-4.39,2.88-.73.35-1.5.65-2.19,1.07-.95.57-1.81,2.32-.13,2.58.32.05.65,0,.96-.09,2.01-.57,3.84-1.62,5.55-2.8.53-.37,1.06-.75,1.57-1.15,6.01-4.61,10.87-11.35,11.7-19.04.49-4.58-.13-9.25-3.34-12.81Z"/>
      </g>
    </symbol>
    <!-- Accidentals -->
    <symbol id="acc-sharp" viewBox="0 0 54.12 54.12">
      <path fill="currentColor" d="M53.85,14.7c.15-.02.26-.15.26-.3v-4.65c0-.18-.16-.33-.34-.3l-10.46,1.36,1.36-10.46c.02-.18-.12-.34-.3-.34h-4.65c-.15,0-.28.11-.3.26l-1.46,11.24-18.06,2.34L21.65.34c.02-.18-.12-.34-.3-.34h-4.65c-.15,0-.28.11-.3.26l-1.85,14.27L.26,16.39c-.15.02-.26.15-.26.3v4.65c0,.18.16.33.34.3l13.5-1.75-2.34,18.06-11.24,1.46c-.15.02-.26.15-.26.3v4.65c0,.18.16.33.34.3l10.46-1.36-1.36,10.46c-.02.18.12.34.3.34h4.65c.15,0,.28-.11.3-.26l1.46-11.24,18.06-2.34-1.75,13.5c-.02.18.12.34.3.34h4.65c.15,0,.28-.11.3-.26l1.85-14.27,14.27-1.85c.15-.02.26-.15.26-.3v-4.65c0-.18-.16-.33-.34-.3l-13.5,1.75,2.34-18.06,11.24-1.46ZM34.92,34.92l-18.06,2.34,2.34-18.06,18.06-2.34-2.34,18.06Z"/>
    </symbol>
    <symbol id="acc-flat" viewBox="0 0 23.55 74.57">
      <path fill="currentColor" d="M16.39,34.02c-4.71-.85-9.42,1.25-12.73,4.47l-.02-37.85c0-.36-.24-.65-.53-.65H.56C.27,0,.03.29.03.65.03.65.02,72.79.02,72.79c-.04.12,0,.32,0,.45,0,.16,0,.33,0,.49,0,.15,0,.3,0,.44,0,.09,0,.18.02.27,0,.08,0,.12.07.12.33.03.65-.25.93-.39.63-.33,1.28-.61,1.9-.94,1.31-.69,2.53-1.55,3.75-2.41.73-.52,1.41-1.08,2.13-1.62.45-.37.9-.74,1.34-1.11,1.05-.9,2.06-1.85,3.03-2.84.89-.91,1.73-1.86,2.53-2.84.73-.9,1.43-1.83,2.08-2.79.6-.87,1.16-1.77,1.68-2.69.47-.83.91-1.68,1.31-2.55.36-.77.69-1.56.99-2.36.26-.7.5-1.41.72-2.12.18-.61.35-1.22.49-1.84.12-.5.22-1,.3-1.5.06-.37.12-.75.16-1.12.03-.23.05-.46.06-.69,0-.07,0-.14,0-.21.38-5.36-2.55-9.68-7.13-10.5ZM19.38,44.38c0,.14-.24,13.52-15.71,24.16v-23.55c2.08-4.05,7.42-7.7,11.99-6.88,2.84.51,3.92,3.45,3.72,6.27Z"/>
    </symbol>
    <symbol id="acc-natural" viewBox="0 0 27.85 63.82">
      <path fill="currentColor" d="M4.15,22.22V.33c0-.18-.15-.33-.33-.33H.33c-.18,0-.33.15-.33.33v47.79c0,.22.22.38.43.32l22.85-7.15c.21-.07.43.09.43.32v21.89c0,.18.15.33.33.33h3.48c.18,0,.33-.15.33-.33V15.7c0-.22-.22-.38-.43-.32l-22.85,7.15c-.21.07-.43-.09-.43-.32ZM4.15,42.48v-15.23c0-.14.09-.27.23-.32l18.9-5.92c.21-.07.43.09.43.32v15.23c0,.14-.09.27-.23.32l-18.9,5.92c-.21.07-.43-.09-.43-.32Z"/>
    </symbol>

    <!-- Rests -->
    <symbol id="rest-quarter" viewBox="0 0 17.61 53.12">
      <path fill="currentColor" d="M6.37.37c1.26.81,2.37,1.83,3.28,3.03,0,0,6.56,8.62,6.65,8.73.71.94,1.91,1.85.93,3.12-.46.6-1.15,1.02-1.66,1.6-.46.53-.91,1.07-1.34,1.62-1.02,1.29-2.04,2.65-2.74,4.15-.26.55-.31,1.08-.46,1.65-.33,1.19-.41,2.5-.33,3.72.07,1.11.29,2.24.74,3.26.44.99,1.24,1.83,1.88,2.69.6.79,1.21,1.58,1.81,2.38.44.58.89,1.17,1.33,1.75.33.43,1.07,1.09,1.15,1.64.02.13,0,.26-.03.39-.19.87-.86,1.57-1.73,1.76-.06.01-.12.02-.18,0-.06-.02-.1-.06-.14-.09-1.79-1.58-4.43-2.86-6.88-2.45-.91.15-1.42.99-1.81,1.75-.87,1.68-.66,3.69.01,5.4.73,1.86,1.95,3.6,2.95,5.34.03.06.07.11.07.18.08.61-1.2,1.02-1.62,1.1-.41.09-1.01-.63-1.3-.88-.47-.4-.92-.8-1.37-1.22-.87-.82-1.7-1.69-2.47-2.61-1.39-1.66-2.86-3.59-3.05-5.83-.07-.88-.08-1.89.07-2.77.25-1.47.9-2.87,2.02-3.87.72-.64,1.59-1.1,2.51-1.36.46-.13.94-.22,1.42-.25.7-.05,1.23.05,1.91.21.53.12,1.46.22,1.58-.49.12-.66-.44-1.45-.77-1.96-1.17-1.92-2.44-3.8-3.8-5.59-.53-.7-1.08-1.39-1.68-2.04-.53-.57-1.05-1.19-1.77-1.52-.15-.07-.32-.12-.46-.22-.51-.33-.32-1.26-.2-1.76.15-.6.51-1.08.97-1.47,1.88-1.59,3.65-3.4,5.11-5.37,1.11-1.49,2.65-3.66,1.74-5.6-.96-2.02-2.2-4.07-3.65-5.77-.3-.35-.61-.68-.93-1-.36-.35-.02-1.03.29-1.34.53-.54,1.21-.43,1.83-.09l.12.08Z"/>
    </symbol>
    <symbol id="rest-eighth" viewBox="0 0 23.28 55.52">
      <path fill="currentColor" d="M22.7.09L18.71,0c-.28,0-.52.13-.56.31l-2.74,14.42c-1.78.4-4.45.65-7.1-.46,1.93-.92,3.27-2.89,3.27-5.17,0-3.17-2.57-5.74-5.74-5.74C3.27,3.36,1.09,5.07.37,7.41c-1.09,3.16.55,5.68.55,5.68,3.32,4.7,7.8,6.11,11.66,6.11.69,0,1.36-.05,2-.13l-6.83,35.91c-.04.23.23.44.58.45l3.99.09c.28,0,.52-.13.56-.31L23.28.54c.04-.23-.23-.44-.58-.45Z"/>
    </symbol>
    <symbol id="rest-half" viewBox="0 0 59.55 11.89">
      <polygon fill="currentColor" points="41.95 8.7 41.95 0 17.6 0 17.6 8.7 0 8.7 0 11.89 59.55 11.89 59.55 8.7 41.95 8.7"/>
    </symbol>
    <symbol id="rest-whole" viewBox="0 0 59.55 11.89">
      <polygon fill="currentColor" points="0 0 0 3.18 17.6 3.18 17.6 11.89 41.95 11.89 41.95 3.18 59.55 3.18 59.55 0 0 0"/>
    </symbol>

    <!-- Augmentation dot -->
    <symbol id="dot" viewBox="0 0 7.62 7.62">
      <circle fill="currentColor" cx="3.81" cy="3.81" r="3.81"/>
    </symbol>
  </defs>
</svg>
